<?xml version="1.0" standalone="no"?>
<!DOCTYPE svg PUBLIC "-//W3C//DTD SVG 20010904//EN"
 "http://www.w3.org/TR/2001/REC-SVG-20010904/DTD/svg10.dtd">
<svg version="1.0" xmlns="http://www.w3.org/2000/svg"
 width="512.000000pt" height="512.000000pt" viewBox="0 0 512.000000 512.000000"
 preserveAspectRatio="xMidYMid meet">
<metadata>
Created by potrace 1.14, written by Peter Selinger 2001-2017
</metadata>
<g transform="translate(0.000000,512.000000) scale(0.100000,-0.100000)"
fill="#000000" stroke="none">
<path d="M575 4415 c-275 -60 -487 -268 -556 -545 -21 -82 -21 -2539 0 -2619
65 -254 237 -441 486 -528 l80 -28 1950 -3 c2195 -3 2018 -9 2188 75 77 38
107 61 182 137 97 98 143 173 187 301 l23 70 3 1250 c3 1411 7 1336 -73 1501
-73 151 -215 286 -372 352 -128 54 -21 52 -2108 51 -1562 0 -1941 -3 -1990
-14z m2454 -601 c44 -26 71 -74 71 -127 0 -35 -94 -312 -400 -1179 -220 -623
-407 -1143 -416 -1156 -41 -62 -142 -82 -205 -39 -39 26 -69 79 -69 122 0 26
761 2203 807 2308 33 77 141 113 212 71z m-1309 -296 c68 -36 101 -127 69
-191 -6 -12 -187 -199 -402 -414 l-392 -393 357 -357 c314 -315 357 -363 363
-396 23 -122 -97 -219 -207 -169 -65 30 -851 822 -868 875 -27 86 -40 70 463
576 254 254 476 469 492 477 43 19 75 17 125 -8z m2327 -421 l433 -432 0 -53
c0 -29 -6 -65 -14 -80 -26 -48 -918 -930 -949 -938 -126 -30 -230 76 -187 193
6 15 187 205 403 420 l392 393 -352 352 c-377 379 -386 389 -364 465 23 80 67
113 151 113 l55 0 432 -433z"/>
</g>
</svg>
